<?xml version="1.0" encoding="iso-8859-1"?>
<!-- Generator: Adobe Illustrator 19.0.0, SVG Export Plug-In . SVG Version: 6.00 Build 0)  -->
<svg version="1.1" id="Layer_1" xmlns="http://www.w3.org/2000/svg" xmlns:xlink="http://www.w3.org/1999/xlink" x="0px" y="0px"
	 viewBox="0 0 512.001 512.001" style="enable-background:new 0 0 512.001 512.001;" xml:space="preserve">
<g>
	<g>
		<g>
			<path d="M428.843,194.418c-64.62-64.617-169.764-64.617-234.385,0c-31.256,31.255-48.469,72.875-48.469,117.191
				c-0.001,44.317,17.213,85.938,48.468,117.193l10.777-10.778c-28.376-28.376-44.004-66.168-44.004-106.415
				c0-40.245,15.628-78.037,44.005-106.413c58.678-58.677,154.152-58.677,212.829,0c28.376,28.376,44.004,66.167,44.004,106.413
				c-0.001,40.245-15.628,78.037-44.005,106.413l10.778,10.778c31.255-31.256,48.469-72.876,48.469-117.191
				C477.311,267.293,460.098,225.673,428.843,194.418z"/>
			<path d="M375.213,448.031l6.424,13.822c11.172-5.192,21.776-11.657,31.517-19.213l-9.343-12.043
				C394.972,437.453,385.35,443.319,375.213,448.031z"/>
			<path d="M453.347,169.914c-37.848-37.847-88.169-58.691-141.693-58.691c-40.743,0-79.663,12.025-112.976,34.838L63.506,10.888
				C56.485,3.867,47.148,0,37.217,0S17.95,3.866,10.927,10.888c-14.497,14.497-14.497,38.084,0,52.58L146.101,198.64
				c-25.425,37.193-37.585,82.2-34.317,127.483c3.462,47.968,24.121,93.136,58.169,127.185
				c37.849,37.848,88.17,58.692,141.696,58.692s103.848-20.844,141.697-58.692C531.479,375.176,531.479,248.046,453.347,169.914z
				 M442.57,442.529c-34.97,34.97-81.464,54.228-130.92,54.228c-49.454,0-95.949-19.258-130.919-54.228
				c-31.459-31.459-50.546-73.189-53.745-117.504c-3.166-43.871,9.332-87.455,35.195-122.723l3.867-5.272L21.706,52.69
				c-8.553-8.553-8.553-22.469,0-31.022c4.143-4.144,9.651-6.425,15.512-6.425c5.86,0,11.369,2.281,15.512,6.424L197.07,166.009
				l5.273-3.866c31.831-23.34,69.63-35.677,109.311-35.677c49.452,0,95.947,19.258,130.916,54.227
				C514.758,252.881,514.758,370.341,442.57,442.529z"/>
			<path d="M291.36,266.496c-10.027,0-19.455,3.905-26.546,10.995c-7.09,7.092-10.996,16.519-10.996,26.546
				c-0.001,10.028,3.905,19.456,10.996,26.546c7.091,7.09,16.518,10.994,26.544,10.994c10.027,0,19.455-3.905,26.546-10.995
				c14.637-14.637,14.637-38.453-0.001-53.09C310.815,270.401,301.388,266.496,291.36,266.496z M307.127,319.804
				c-4.212,4.212-9.812,6.532-15.769,6.532c-5.956,0-11.555-2.319-15.767-6.531c-4.212-4.212-6.531-9.81-6.531-15.768
				c0-5.956,2.32-11.556,6.531-15.768c4.212-4.213,9.812-6.532,15.768-6.532s11.555,2.319,15.767,6.531
				C315.82,296.964,315.821,311.111,307.127,319.804z"/>
			<path d="M390.875,239.229c-11.725-11.725-27.314-18.183-43.898-18.183c-16.195,0-31.443,6.16-43.068,17.368
				c-4.137-0.788-8.347-1.186-12.568-1.186c-17.845,0-34.617,6.946-47.231,19.559c-17.211,17.212-23.625,41.976-17.092,65.268
				c-9.441,23.005-4.179,49.781,13.536,67.492c11.724,11.726,27.314,18.185,43.898,18.185c16.583,0,32.173-6.458,43.898-18.182
				l62.523-62.523C415.079,302.82,415.081,263.435,390.875,239.229z M317.573,378.772c-8.846,8.847-20.609,13.718-33.12,13.718
				c-12.512,0-24.274-4.872-33.121-13.72c-13.904-13.902-17.643-35.201-9.302-52.999l1.282-2.738l-0.943-2.872
				c-6.107-18.613-1.311-38.766,12.518-52.596c9.735-9.734,22.68-15.095,36.453-15.095c4.409,0,8.804,0.562,13.061,1.67l4.221,1.097
				l5.231-5.229c8.848-8.848,20.61-13.72,33.122-13.72c12.512,0,24.274,4.872,33.12,13.719c18.262,18.262,18.262,47.978,0,66.24
				L317.573,378.772z"/>
		</g>
	</g>
</g>
<g>
</g>
<g>
</g>
<g>
</g>
<g>
</g>
<g>
</g>
<g>
</g>
<g>
</g>
<g>
</g>
<g>
</g>
<g>
</g>
<g>
</g>
<g>
</g>
<g>
</g>
<g>
</g>
<g>
</g>
</svg>
