<?xml version="1.0" encoding="iso-8859-1"?>
<!-- Generator: Adobe Illustrator 18.0.0, SVG Export Plug-In . SVG Version: 6.00 Build 0)  -->
<!DOCTYPE svg PUBLIC "-//W3C//DTD SVG 1.1//EN" "http://www.w3.org/Graphics/SVG/1.1/DTD/svg11.dtd">
<svg version="1.1" id="Capa_1" xmlns="http://www.w3.org/2000/svg" xmlns:xlink="http://www.w3.org/1999/xlink" x="0px" y="0px"
	 viewBox="0 0 402.13 402.13" style="enable-background:new 0 0 402.13 402.13;" xml:space="preserve">
<g>
	<path d="M329.983,113.307l42.007-53.209c1.12-1.419,1.387-3.333,0.697-5.005c-0.689-1.672-2.229-2.841-4.024-3.057l-45.711-5.507
		l3.455-6.049c0.788-1.38,0.873-3.052,0.229-4.505c-0.643-1.453-1.938-2.513-3.49-2.857l-149-33
		c-1.647-0.365-3.368,0.126-4.575,1.305c-1.207,1.179-1.738,2.888-1.412,4.543l15.857,80.458
		c-47.805,2.327-92.204,14.419-125.567,34.286C22.734,141.978,3.065,170.136,3.065,200c0,111.455,88.822,202.13,198,202.13
		c109.178,0,198-90.675,198-202.13C399.065,166.279,373.974,134.929,329.983,113.307z M389.065,200
		c0,7.945-1.636,15.786-4.87,23.438c-7.342-31.788-35.829-60.023-79.485-78.118l18.932-23.98
		C365.276,141.252,389.065,169.773,389.065,200z M303.537,287.075c-0.323-0.975-0.935-1.863-1.837-2.503
		c-17.333-12.293-34.546,0.024-35.271,0.555c-2.228,1.631-2.712,4.76-1.08,6.988c0.979,1.338,2.498,2.047,4.038,2.047
		c1.025,0,2.06-0.314,2.95-0.966c0.106-0.078,9.816-7.024,20.16-2.419C264.628,299.448,233.394,304,201.065,304
		c-39.089,0-76.594-6.636-108.462-19.191c-30.09-11.854-53.046-28.074-66.524-46.972c0.86-26.314,18.381-51.233,49.528-70.319
		c31.53-19.322,73.357-30.469,118.172-31.555l0.204,1.037h-9.585c-2.761,0-5,2.239-5,5s2.239,5,5,5h15.526l30.991,1.699l2.367,7.76
		c0.442,1.45,1.518,2.621,2.925,3.184l39.879,15.952l12.883,5.946c0.679,0.313,1.392,0.461,2.093,0.461
		c1.89,0,3.698-1.077,4.543-2.906c1.157-2.507,0.063-5.478-2.444-6.635l-7.24-3.341l12.338-15.628
		c47.826,19.078,76.683,50.347,77.782,84.36c-13.478,18.891-36.43,35.107-66.515,46.959
		C307.552,285.587,305.555,286.342,303.537,287.075z M276.455,164.971l-34.307-13.723L209.087,42.882l149.531,18.016
		L276.455,164.971z M314.357,41.414l-2.18,3.817L202.663,32.036c-1.681-0.205-3.346,0.458-4.431,1.753
		c-1.085,1.296-1.443,3.053-0.949,4.67l30.526,100.055l-23.59-1.293l-24.77-125.685L314.357,41.414z M63.565,129.302
		c32.321-19.246,75.649-30.893,122.405-32.962l5.849,29.678c-45.908,1.373-88.835,12.994-121.438,32.973
		c-28.678,17.574-46.816,40.031-52.454,64.431c-3.229-7.647-4.863-15.483-4.863-23.423
		C13.065,173.802,30.999,148.694,63.565,129.302z M201.065,392.13c-88.96,0-163.683-63.475-183.092-148.435
		c14.613,20.455,39.098,37.864,70.964,50.418C121.961,307.123,160.734,314,201.065,314c40.332,0,79.104-6.877,112.127-19.887
		c31.868-12.555,56.355-29.965,70.965-50.42C364.75,328.654,290.026,392.13,201.065,392.13z"/>
	<path d="M119.301,183.528c-19-9.502-34.137,5.302-34.771,5.937c-1.953,1.953-1.953,5.119,0,7.071
		c0.977,0.976,2.256,1.464,3.536,1.464s2.559-0.488,3.536-1.464c0.104-0.104,10.597-10.38,23.229-4.063
		c2.468,1.234,5.473,0.233,6.708-2.236C122.772,187.766,121.771,184.763,119.301,183.528z"/>
	<path d="M178.156,228.123c1.598-2.252,1.067-5.373-1.185-6.971c-17.329-12.294-34.545,0.024-35.271,0.555
		c-2.22,1.625-2.698,4.731-1.084,6.959c0.976,1.348,2.503,2.063,4.053,2.063c1.013,0,2.035-0.305,2.919-0.938
		c0.493-0.353,12.209-8.562,23.597-0.482C173.437,230.906,176.558,230.375,178.156,228.123z"/>
	<path d="M212.467,197.195c1.025,0,2.06-0.314,2.95-0.966c0.119-0.087,12.062-8.638,23.576-0.467
		c2.254,1.597,5.374,1.067,6.972-1.185s1.067-5.373-1.185-6.971c-17.332-12.294-34.546,0.025-35.271,0.555
		c-2.228,1.631-2.712,4.76-1.08,6.988C209.408,196.486,210.927,197.195,212.467,197.195z"/>
	<path d="M245.78,254.606c-17.332-12.294-34.547,0.024-35.271,0.555c-2.228,1.631-2.712,4.76-1.08,6.988
		c0.979,1.338,2.498,2.047,4.038,2.047c1.025,0,2.06-0.314,2.95-0.966c0.118-0.087,12.062-8.638,23.576-0.467
		c2.254,1.597,5.373,1.067,6.972-1.185C248.562,259.324,248.032,256.204,245.78,254.606z"/>
	<path d="M118.78,258.606c-17.33-12.294-34.546,0.023-35.271,0.555c-2.22,1.625-2.698,4.731-1.084,6.959
		c0.976,1.348,2.503,2.063,4.053,2.063c1.013,0,2.035-0.305,2.919-0.938c0.493-0.354,12.208-8.562,23.597-0.482
		c2.251,1.598,5.373,1.067,6.971-1.185C121.562,263.324,121.032,260.204,118.78,258.606z"/>
	<path d="M72.958,231.922c-17.329-12.294-34.545,0.024-35.271,0.555c-2.22,1.625-2.698,4.731-1.084,6.959
		c0.976,1.348,2.503,2.063,4.053,2.063c1.013,0,2.035-0.305,2.919-0.938c0.493-0.354,12.209-8.562,23.597-0.482
		c2.252,1.598,5.374,1.067,6.971-1.185C75.741,236.641,75.21,233.52,72.958,231.922z"/>
	<path d="M164.476,165.962c1.013,0,2.035-0.305,2.919-0.938c0.493-0.354,12.209-8.561,23.597-0.482
		c2.251,1.598,5.373,1.067,6.971-1.185c1.598-2.252,1.067-5.373-1.185-6.971c-17.33-12.294-34.546,0.024-35.271,0.555
		c-2.22,1.625-2.698,4.731-1.084,6.959C161.399,165.247,162.926,165.962,164.476,165.962z"/>
	<path d="M205.778,292.385c-17.331-12.294-34.546,0.024-35.271,0.555c-2.22,1.625-2.698,4.731-1.084,6.959
		c0.976,1.348,2.503,2.063,4.053,2.063c1.013,0,2.035-0.305,2.919-0.938c0.493-0.354,12.208-8.562,23.597-0.482
		c2.25,1.598,5.374,1.067,6.971-1.185S208.03,293.984,205.778,292.385z"/>
	<path d="M324.647,238.211c1.598-2.252,1.067-5.373-1.185-6.971c-17.333-12.294-34.546,0.025-35.271,0.555
		c-2.228,1.631-2.712,4.76-1.08,6.988c0.979,1.338,2.498,2.047,4.038,2.047c1.025,0,2.06-0.314,2.95-0.966
		c0.119-0.087,12.062-8.637,23.576-0.467C319.929,240.993,323.05,240.463,324.647,238.211z"/>
	<path d="M313.301,198.183c1.025,0,2.06-0.314,2.95-0.966c0.119-0.087,12.061-8.637,23.576-0.467
		c2.253,1.597,5.374,1.067,6.972-1.185s1.067-5.373-1.185-6.971c-17.333-12.294-34.546,0.025-35.271,0.555
		c-2.228,1.631-2.712,4.76-1.08,6.988C310.242,197.474,311.761,198.183,313.301,198.183z"/>
</g>
<g>
</g>
<g>
</g>
<g>
</g>
<g>
</g>
<g>
</g>
<g>
</g>
<g>
</g>
<g>
</g>
<g>
</g>
<g>
</g>
<g>
</g>
<g>
</g>
<g>
</g>
<g>
</g>
<g>
</g>
</svg>
