<?xml version="1.0" encoding="iso-8859-1"?>
<!-- Generator: Adobe Illustrator 18.0.0, SVG Export Plug-In . SVG Version: 6.00 Build 0)  -->
<!DOCTYPE svg PUBLIC "-//W3C//DTD SVG 1.1//EN" "http://www.w3.org/Graphics/SVG/1.1/DTD/svg11.dtd">
<svg version="1.1" id="Capa_1" xmlns="http://www.w3.org/2000/svg" xmlns:xlink="http://www.w3.org/1999/xlink" x="0px" y="0px"
	 viewBox="0 0 412.288 412.288" style="enable-background:new 0 0 412.288 412.288;" xml:space="preserve">
<g>
	<path d="M104.101,206.144c0-3.866-3.134-7-7-7H7c-3.866,0-7,3.134-7,7s3.134,7,7,7h90.101
		C100.967,213.144,104.101,210.01,104.101,206.144z"/>
	<path d="M405.288,199.144h-90.093c-3.866,0-7,3.134-7,7s3.134,7,7,7h90.093c3.866,0,7-3.134,7-7S409.154,199.144,405.288,199.144z"
		/>
	<path d="M259.284,303.543c-1.634-3.504-5.799-5.018-9.303-3.386c-3.503,1.634-5.02,5.799-3.386,9.303l18.371,39.396
		c1.189,2.547,3.713,4.043,6.349,4.043c0.991,0,1.997-0.211,2.954-0.656c3.504-1.635,5.02-5.799,3.386-9.303L259.284,303.543z"/>
	<path d="M153.003,108.746c1.189,2.547,3.713,4.043,6.349,4.043c0.991,0,1.997-0.211,2.954-0.657
		c3.504-1.634,5.02-5.799,3.386-9.303L147.32,63.437c-1.635-3.504-5.799-5.019-9.303-3.386c-3.504,1.634-5.02,5.799-3.386,9.303
		L153.003,108.746z"/>
	<path d="M300.154,249.984c-1.634,3.504-0.117,7.669,3.387,9.303l39.396,18.37c0.957,0.446,1.963,0.657,2.953,0.657
		c2.637,0,5.161-1.496,6.349-4.043c1.634-3.504,0.118-7.669-3.386-9.303l-39.397-18.37
		C305.954,244.965,301.788,246.48,300.154,249.984z"/>
	<path d="M112.13,162.305c1.634-3.504,0.118-7.668-3.386-9.302l-39.394-18.368c-3.503-1.635-7.669-0.118-9.303,3.386
		c-1.634,3.504-0.117,7.668,3.387,9.302l39.394,18.368c0.957,0.446,1.963,0.657,2.953,0.657
		C108.418,166.348,110.942,164.852,112.13,162.305z"/>
	<path d="M162.306,300.157c-3.503-1.633-7.669-0.118-9.303,3.386l-18.371,39.397c-1.634,3.504-0.117,7.668,3.386,9.303
		c0.957,0.445,1.964,0.656,2.954,0.656c2.637,0,5.161-1.496,6.349-4.043l18.371-39.396
		C167.325,305.956,165.81,301.791,162.306,300.157z"/>
	<path d="M249.981,112.132c0.957,0.446,1.963,0.657,2.954,0.657c2.636,0,5.161-1.497,6.349-4.043l18.371-39.393
		c1.634-3.503,0.118-7.669-3.386-9.303c-3.5-1.632-7.667-0.118-9.303,3.386l-18.371,39.393
		C244.962,106.333,246.478,110.498,249.981,112.132z"/>
	<path d="M133.988,278.3c-2.733-2.733-7.166-2.733-9.899,0l-63.711,63.71c-2.733,2.734-2.733,7.166,0,9.9
		c1.367,1.366,3.158,2.05,4.95,2.05c1.791,0,3.583-0.684,4.949-2.05l63.711-63.711C136.722,285.466,136.722,281.033,133.988,278.3z"
		/>
	<path d="M278.306,133.982c1.366,1.367,3.158,2.05,4.949,2.05c1.792,0,3.583-0.684,4.95-2.05l63.704-63.705
		c2.734-2.733,2.734-7.166,0-9.899c-2.733-2.733-7.166-2.733-9.899,0l-63.704,63.705
		C275.571,126.816,275.571,131.249,278.306,133.982z"/>
	<path d="M124.089,133.988c1.366,1.367,3.158,2.05,4.949,2.05c1.792,0,3.583-0.684,4.95-2.05c2.733-2.733,2.733-7.166,0-9.899
		l-63.711-63.71c-2.733-2.733-7.166-2.733-9.899,0c-2.733,2.733-2.733,7.166,0,9.899L124.089,133.988z"/>
	<path d="M288.205,278.306c-2.733-2.733-7.166-2.733-9.899,0c-2.734,2.733-2.734,7.166,0,9.899l63.704,63.705
		c1.367,1.366,3.158,2.05,4.95,2.05c1.791,0,3.583-0.684,4.949-2.05c2.734-2.734,2.734-7.166,0-9.9L288.205,278.306z"/>
	<path d="M206.149,125.842c-44.284,0-80.312,36.023-80.312,80.302c0,44.278,36.027,80.301,80.312,80.301
		c44.277,0,80.3-36.023,80.3-80.301C286.449,161.866,250.427,125.842,206.149,125.842z M206.149,272.445
		c-15.745,0-30.218-5.523-41.601-14.725c-0.027-0.022-0.053-0.044-0.08-0.066c-0.889-0.72-1.759-1.462-2.609-2.226
		c-0.039-0.036-0.078-0.073-0.118-0.109c-0.852-0.77-1.686-1.561-2.497-2.374c-0.023-0.023-0.045-0.047-0.069-0.071
		c-0.824-0.829-1.628-1.678-2.409-2.549c-0.006-0.008-0.013-0.016-0.02-0.023c-0.792-0.886-1.562-1.792-2.307-2.719
		c-0.095-0.118-0.187-0.239-0.281-0.357c-0.627-0.79-1.235-1.595-1.826-2.414c-0.128-0.178-0.255-0.357-0.381-0.535
		c-0.552-0.781-1.085-1.574-1.603-2.379c-0.128-0.199-0.258-0.396-0.383-0.597c-0.517-0.823-1.014-1.659-1.496-2.505
		c-0.101-0.178-0.207-0.354-0.307-0.533c-0.538-0.965-1.052-1.945-1.542-2.94c-0.028-0.057-0.06-0.113-0.088-0.171
		c-1.044-2.135-1.974-4.335-2.787-6.59c-0.093-0.256-0.174-0.518-0.264-0.776c-0.291-0.84-0.571-1.685-0.829-2.54
		c-0.113-0.373-0.215-0.75-0.321-1.126c-0.212-0.753-0.415-1.509-0.602-2.273c-0.104-0.426-0.202-0.854-0.297-1.284
		c-0.163-0.73-0.312-1.464-0.451-2.203c-0.084-0.449-0.167-0.898-0.242-1.35c-0.124-0.744-0.229-1.494-0.327-2.247
		c-0.058-0.445-0.121-0.889-0.17-1.337c-0.09-0.814-0.154-1.634-0.214-2.456c-0.028-0.389-0.067-0.774-0.089-1.165
		c-0.066-1.213-0.106-2.433-0.106-3.662c0-36.559,29.747-66.302,66.312-66.302c1.229,0,2.449,0.04,3.662,0.106
		c0.391,0.021,0.776,0.061,1.164,0.089c0.822,0.06,1.643,0.124,2.457,0.214c0.448,0.049,0.892,0.112,1.337,0.17
		c0.752,0.098,1.501,0.203,2.246,0.326c0.453,0.075,0.902,0.158,1.352,0.242c0.738,0.139,1.471,0.288,2.2,0.45
		c0.43,0.096,0.86,0.194,1.287,0.298c0.762,0.186,1.518,0.389,2.269,0.601c0.376,0.106,0.755,0.209,1.129,0.322
		c0.855,0.258,1.699,0.537,2.539,0.828c0.258,0.09,0.521,0.171,0.777,0.264c2.254,0.814,4.453,1.743,6.587,2.786
		c0.064,0.031,0.127,0.066,0.19,0.098c0.987,0.487,1.961,0.998,2.92,1.531c0.184,0.102,0.363,0.21,0.545,0.314
		c0.842,0.479,1.674,0.974,2.492,1.488c0.204,0.127,0.404,0.259,0.606,0.389c0.802,0.516,1.592,1.047,2.369,1.596
		c0.182,0.129,0.364,0.258,0.545,0.388c0.815,0.587,1.616,1.193,2.402,1.816c0.123,0.097,0.247,0.192,0.369,0.289
		c0.929,0.747,1.838,1.519,2.726,2.314c0.004,0.003,0.008,0.007,0.012,0.01c0.872,0.781,1.721,1.586,2.551,2.41
		c0.023,0.023,0.047,0.046,0.071,0.069c0.812,0.81,1.601,1.642,2.37,2.493c0.037,0.041,0.076,0.081,0.113,0.122
		c0.763,0.849,1.504,1.718,2.224,2.606c0.022,0.027,0.044,0.054,0.066,0.081c9.201,11.38,14.723,25.85,14.723,41.591
		C272.449,242.703,242.707,272.445,206.149,272.445z"/>
	<path d="M63.435,264.969c-3.504,1.634-5.021,5.799-3.387,9.303c1.188,2.547,3.713,4.043,6.349,4.043
		c0.991,0,1.997-0.211,2.954-0.657l39.396-18.37c3.504-1.634,5.02-5.799,3.386-9.303c-1.634-3.504-5.801-5.02-9.302-3.386
		L63.435,264.969z"/>
	<path d="M348.854,147.323c3.504-1.634,5.019-5.798,3.386-9.302c-1.634-3.505-5.801-5.021-9.302-3.386l-39.393,18.368
		c-3.504,1.634-5.021,5.798-3.387,9.302c1.188,2.547,3.713,4.044,6.349,4.044c0.991,0,1.997-0.211,2.954-0.657L348.854,147.323z"/>
	<path d="M206.144,312.761c-3.866,0-7,3.134-7,7v85.527c0,3.866,3.134,7,7,7c3.866,0,7-3.134,7-7v-85.527
		C213.144,315.895,210.01,312.761,206.144,312.761z"/>
	<path d="M206.144,99.529c3.866,0,7-3.134,7-7V7c0-3.866-3.134-7-7-7c-3.866,0-7,3.134-7,7v85.529
		C199.144,96.396,202.277,99.529,206.144,99.529z"/>
	<path d="M172.456,170.666c-20.657,12.708-20.374,34.755-20.352,35.688c0.091,3.809,3.206,6.834,6.995,6.834
		c0.056,0,0.113-0.001,0.169-0.002c3.865-0.092,6.924-3.299,6.832-7.164c-0.003-0.148-0.191-14.891,13.692-23.432
		c3.293-2.025,4.319-6.337,2.294-9.63C180.06,169.667,175.749,168.638,172.456,170.666z"/>
</g>
<g>
</g>
<g>
</g>
<g>
</g>
<g>
</g>
<g>
</g>
<g>
</g>
<g>
</g>
<g>
</g>
<g>
</g>
<g>
</g>
<g>
</g>
<g>
</g>
<g>
</g>
<g>
</g>
<g>
</g>
</svg>
